<?xml version="1.0" encoding="utf-8"?>
<!-- Generator: Adobe Illustrator 19.1.0, SVG Export Plug-In . SVG Version: 6.00 Build 0)  -->
<svg version="1.1" id="Layer_1" xmlns="http://www.w3.org/2000/svg" xmlns:xlink="http://www.w3.org/1999/xlink" x="0px" y="0px"
	 viewBox="0 0 326.5 158.4" style="enable-background:new 0 0 326.5 158.4;" xml:space="preserve">
<style type="text/css">
	.st0{fill:#25428F;}
	.st1{fill:#D1262A;}
</style>
<g>
	<g>
		<path class="st0" d="M0,108.4h3.8c0-5.6,0.1-8.9,0.3-9.9c0.3-2.3,1.3-4.2,3-5.6c1.7-1.4,4.1-2.1,7.1-2.1c2.2,0,4.7,0.5,7.5,1.6
			v8.3c-1.5-0.4-2.8-0.7-3.8-0.7c-1.3,0-2.2,0.3-2.7,0.8c-0.4,0.4-0.6,1.2-0.6,2.4l0,5.2h6.8v9.1h-6.8v33.6H3.8v-33.6H0V108.4z"/>
		<path class="st0" d="M27,108.4h9.3v5.4c1-2.1,2.3-3.7,3.9-4.8c1.6-1.1,3.4-1.6,5.3-1.6c1.4,0,2.8,0.4,4.3,1.1l-3.3,9.2
			c-1.2-0.6-2.3-0.9-3.1-0.9c-1.6,0-3,1-4.1,3.1c-1.1,2-1.7,6-1.7,12l0,2.1v17.2H27V108.4z"/>
		<path class="st0" d="M96.2,130.8c0-7-2.1-12.7-6.3-17c-4.2-4.3-9.7-6.4-16.4-6.4c-6.3,0-11.6,2.1-15.8,6.4
			c-4.2,4.3-6.3,9.7-6.3,16.2c0,6.3,2.1,11.6,6.3,15.8c4.2,4.2,9.7,6.3,16.4,6.3c4.3,0,8.1-0.8,11.2-2.3c3.1-1.5,5.8-3.9,8.1-7.1
			l-9-4.2c-2.9,2.8-6.3,4.2-10.3,4.2c-3.4,0-6.1-0.9-8.3-2.7c-2.2-1.8-3.5-4.2-4-7.2h34.5L96.2,130.8z M62.1,124.4
			c1.2-2.6,2.5-4.4,4-5.5c2.3-1.6,4.9-2.5,7.9-2.5c2.8,0,5.2,0.7,7.3,2.2c2.1,1.5,3.5,3.4,4.2,5.7H62.1z"/>
		<path class="st0" d="M147.7,130.8c0-7-2.1-12.7-6.3-17c-4.2-4.3-9.7-6.4-16.4-6.4c-6.3,0-11.6,2.1-15.8,6.4
			c-4.2,4.3-6.3,9.7-6.3,16.2c0,6.3,2.1,11.6,6.3,15.8c4.2,4.2,9.7,6.3,16.4,6.3c4.3,0,8-0.8,11.2-2.3c3.1-1.5,5.8-3.9,8.1-7.1
			l-9-4.2c-2.9,2.8-6.3,4.2-10.3,4.2c-3.3,0-6.1-0.9-8.3-2.7c-2.2-1.8-3.5-4.2-4-7.2h34.5L147.7,130.8z M113.6,124.4
			c1.2-2.6,2.5-4.4,4-5.5c2.3-1.6,4.9-2.5,7.9-2.5c2.8,0,5.2,0.7,7.3,2.2c2.1,1.5,3.5,3.4,4.2,5.7H113.6z"/>
		<path class="st0" d="M187.9,113.1c-1.9-1.9-4-3.4-6.3-4.3c-2.3-1-4.7-1.4-7.2-1.4c-5.6,0-10.3,2.1-14.3,6.3
			c-3.9,4.2-5.9,9.6-5.9,16.2c0,6.3,2,11.7,6.1,15.9c4,4.3,8.8,6.4,14.4,6.4c2.5,0,4.8-0.4,6.9-1.3c2.1-0.9,4.2-2.3,6.3-4.3v4.5
			h10.7V91.9h-10.7V113.1z M185,120.6c2.2,2.3,3.3,5.3,3.3,9c0,3.8-1.1,6.8-3.3,9.2c-2.2,2.3-5,3.5-8.4,3.5c-3.3,0-6-1.2-8.3-3.6
			c-2.2-2.4-3.4-5.4-3.4-9.1c0-3.6,1.1-6.6,3.3-9c2.2-2.3,5-3.5,8.3-3.5C179.9,117.1,182.8,118.3,185,120.6"/>
		<path class="st0" d="M214.7,113.1c-4.9,4.4-7.3,10-7.3,16.6c0,6.2,2.2,11.5,6.5,15.8c4.3,4.3,9.5,6.5,15.7,6.5c4.1,0,7.9-1,11.4-3
			c3.5-2,6.2-4.7,8.2-8.2c2-3.5,3-7.3,3-11.3c0-4-1-7.7-3-11.2c-2-3.4-4.7-6.2-8.3-8.2c-3.5-2-7.3-3-11.3-3
			C223.9,107.3,219,109.3,214.7,113.1 M238,120.8c2.2,2.3,3.3,5.3,3.3,8.9c0,3.7-1.1,6.7-3.3,9c-2.2,2.3-5,3.5-8.4,3.5
			c-3.3,0-6.1-1.1-8.3-3.5c-2.2-2.3-3.3-5.3-3.3-9c0-3.6,1.1-6.6,3.3-8.9c2.2-2.3,5-3.5,8.3-3.5C233.1,117.4,235.9,118.5,238,120.8"
			/>
		<path class="st0" d="M260.9,108.4h10.7v5c1.8-2,3.9-3.5,6.1-4.5c2.2-1,4.7-1.5,7.4-1.5c2.7,0,5.1,0.7,7.3,2
			c2.2,1.3,3.9,3.2,5.2,5.8c1.7-2.5,3.8-4.5,6.3-5.8c2.5-1.3,5.2-2,8.1-2c3.1,0,5.7,0.7,8,2.1c2.3,1.4,4,3.2,5,5.5
			c1,2.3,1.5,6,1.5,11.1v25h-10.7v-21.6c0-4.8-0.6-8.1-1.8-9.8c-1.2-1.7-3.1-2.6-5.5-2.6c-1.9,0-3.5,0.5-5,1.6
			c-1.5,1-2.6,2.5-3.3,4.3c-0.7,1.8-1.1,4.8-1.1,8.9v19.2h-10.7v-20.6c0-3.8-0.3-6.6-0.9-8.3c-0.6-1.7-1.4-3-2.6-3.8
			c-1.1-0.8-2.5-1.3-4.2-1.3c-1.8,0-3.4,0.5-4.9,1.6c-1.5,1.1-2.6,2.5-3.3,4.4c-0.7,1.9-1.1,4.9-1.1,9v18.9h-10.7V108.4z"/>
	</g>
	<polygon class="st1" points="61.6,93.5 61.6,93.6 61.6,93.5 61.4,93.5 	"/>
	<g>
		<path class="st1" d="M19.8,76l41.5,17.5c1.1-2.9,2.3-5.6,3.7-8.3L19.8,76z"/>
		<path class="st1" d="M102.1,54.5c0.1,0,0.3-0.1,0.4-0.1l-18-44.4l9.3,47.2c2.6-1.1,5.2-2,7.9-2.7L102.1,54.5z"/>
		<path class="st1" d="M91.7,58.2c0.5-0.2,0.9-0.4,1.4-0.7L66.9,17.5l18.2,44.6c2-1.4,4.1-2.6,6.2-3.7L91.7,58.2z"/>
		<path class="st1" d="M82.1,64.2c0.8-0.6,1.6-1.2,2.4-1.8L51.1,28.2l26.3,40.1c1.4-1.3,2.8-2.6,4.3-3.8L82.1,64.2z"/>
		<path class="st1" d="M73.6,72.3c1.1-1.2,2.2-2.4,3.3-3.5L37.6,41.9l33.2,33.8c0.8-1,1.6-2,2.4-3L73.6,72.3z"/>
		<path class="st1" d="M154.4,75.7l33.2-33.8l-39.3,26.8c-0.2-0.2-0.3-0.3-0.5-0.5l26.3-40l-33.4,34.1c-0.2-0.1-0.4-0.2-0.5-0.4
			l18.2-44.5l-26.2,40.1c-0.2-0.1-0.4-0.2-0.6-0.3l9.3-47.2l-18,44.4c-0.2,0-0.5-0.1-0.7-0.2l0-48l-9.1,47c0,0,0,0-0.1,0h-0.1
			c3.5,0,7,0.5,10.3,1.3l0.4,0.1c3.4,0.8,6.8,2.1,9.9,3.6l0.4,0.2c3.2,1.6,6.3,3.6,9.2,5.8l0.4,0.3c2.9,2.3,5.6,4.9,8.1,7.8l0.4,0.4
			c2.5,2.9,4.7,6.1,6.7,9.5l0.3,0.6c0.3,0.5,0.5,0.9,0.8,1.4l0.1-0.1l38.3-26.1"/>
		<path class="st1" d="M70.4,76.4L27.1,58.1l38.4,26.1c0.3-0.5,0.5-0.9,0.8-1.4l0.3-0.6"/>
		<path class="st1" d="M103.1,6.3l0,48c3-0.6,6-1,9.1-1L103.1,6.3z"/>
		<path class="st1" d="M205.5,76l-45.1,9.2l-0.1,0c1.4,2.7,2.6,5.5,3.7,8.4l-0.4,0l0,0l0.1,0l0.4,0c0-0.1,0-0.1-0.1-0.2L205.5,76z"
			/>
	</g>
</g>
</svg>
